<svg width="29" height="29" viewBox="0 0 29 29" fill="none" xmlns="http://www.w3.org/2000/svg">
<path d="M17.8123 6.25C19.0332 6.48821 20.1553 7.08532 21.0349 7.96492C21.9145 8.84452 22.5116 9.96658 22.7498 11.1875L17.8123 6.25ZM17.8123 1.25C20.3489 1.5318 22.7143 2.66772 24.5201 4.47126C26.3259 6.2748 27.4648 8.63876 27.7498 11.175L17.8123 1.25ZM26.4998 21.15V24.9C26.5012 25.2481 26.4299 25.5927 26.2904 25.9117C26.151 26.2307 25.9464 26.517 25.6899 26.7523C25.4334 26.9877 25.1305 27.1669 24.8007 27.2784C24.471 27.3899 24.1215 27.4313 23.7748 27.4C19.9283 26.9821 16.2335 25.6677 12.9873 23.5625C9.96708 21.6433 7.40647 19.0827 5.48729 16.0625C3.37477 12.8015 2.0601 9.08874 1.64979 5.225C1.61856 4.87933 1.65964 4.53095 1.77042 4.20203C1.8812 3.87311 2.05926 3.57086 2.29325 3.31453C2.52725 3.05819 2.81205 2.85339 3.12953 2.71315C3.44702 2.57292 3.79022 2.50033 4.13729 2.5H7.8873C8.49393 2.49403 9.08203 2.70885 9.542 3.10442C10.002 3.49998 10.3024 4.04931 10.3873 4.65C10.5456 5.85008 10.8391 7.02841 11.2623 8.1625C11.4305 8.6099 11.4669 9.09614 11.3672 9.5636C11.2675 10.0311 11.0359 10.4601 10.6998 10.8L9.1123 12.3875C10.8917 15.5169 13.4829 18.1081 16.6123 19.8875L18.1998 18.3C18.5397 17.9639 18.9687 17.7323 19.4362 17.6326C19.9037 17.5329 20.3899 17.5693 20.8373 17.7375C21.9714 18.1607 23.1497 18.4542 24.3498 18.6125C24.957 18.6982 25.5115 19.004 25.908 19.4719C26.3044 19.9397 26.515 20.537 26.4998 21.15Z" stroke="white" stroke-width="2" stroke-linecap="round" stroke-linejoin="round"/>
</svg>
